<svg width="200" height="200" viewBox="0 0 200 200" fill="none" xmlns="http://www.w3.org/2000/svg">
<path d="M162.692 43.125C151.05 43.125 143.233 39.0083 130.292 32.2C123.192 28.4833 117.492 25 109.308 25C98.6833 25 94.75 30.4833 88.0417 38.0333C70.9417 24.7583 58.7667 30.475 47.975 35.5917C41.6667 38.575 35.15 41.6667 26.4167 41.6667H0V107.583C8.94167 108.433 16.675 108.992 27.3917 111.45C20.8167 123.375 27.8667 137.758 41.0083 139.967C43.7083 145.592 49.1 149.625 55.325 150.683C57.925 156.125 63.175 160.275 69.5667 161.342C74.1 170.9 85.9167 175.208 96.1333 170.258C99.75 173.242 104.342 175 109.192 175C116.625 175 123.667 170.975 127.067 163.858C133.3 162.55 138.383 158.458 140.933 153.058C146.833 151.833 151.967 148.025 154.667 142.342C166.217 139.992 173.767 127.95 168.733 115.858C177.867 111.358 187.242 109.525 200 106.692V41.1417C191.992 41.6333 170.775 42.9583 162.692 43.125V43.125ZM40.0333 126.333C36.8917 123.967 36.5 119.433 39.175 116.25L45.6917 108.258C48.3667 105.058 53.0833 104.383 56.2333 106.767C59.4 109.142 59.7667 113.65 57.1 116.858L50.5833 124.825C47.9083 128.033 43.1917 128.692 40.0333 126.333V126.333ZM54.3167 137.017C51.1667 134.633 50.7083 130.217 53.3917 127.017L59.975 118.942C62.65 115.75 67.3667 115.075 70.5167 117.433C73.6667 119.808 74.0583 124.333 71.375 127.517L64.7917 135.592C62.1167 138.8 57.4833 139.4 54.3167 137.017V137.017ZM68.6 147.717C65.45 145.342 65.05 140.817 67.7417 137.608L74.2417 129.642C76.9167 126.442 81.6333 125.75 84.7917 128.125C87.9333 130.508 88.325 135.017 85.65 138.217L79.1417 146.2C76.4667 149.408 71.7333 150.075 68.6 147.717V147.717ZM99.9333 148.883L93.4083 156.908C90.7167 160.125 86.0083 160.783 82.8583 158.417C79.7083 156.042 79.325 151.533 81.9917 148.333L88.5333 140.3C91.2167 137.117 95.9333 136.433 99.075 138.817C102.242 141.167 102.625 145.692 99.9333 148.883V148.883ZM113.617 160.733C112.333 161.725 110.775 162.208 109.192 162.208C108.05 162.208 106.917 161.917 105.85 161.417L109.633 156.758C111.292 154.8 112.525 152.483 113.3 150.008L114.333 150.925C117 153.983 116.658 158.35 113.617 160.733ZM155.017 128.483C151.95 130.85 147.317 130.275 144.683 127.267L123.883 109.425C122.158 107.95 119.958 110.558 121.667 112.008L141.942 129.417C144.6 132.467 144.258 136.858 141.208 139.208C138.133 141.6 133.492 141.033 130.858 137.992L114.9 124.008C113.2 122.517 110.95 125.092 112.642 126.583L128.208 140.267C130.867 143.308 130.475 147.6 127.4 149.983C124.367 152.333 119.808 151.908 117.142 148.842L114.1 146.133C115.208 135.633 107.875 126.8 98.0667 125.167C95.35 119.467 89.9417 115.525 83.8 114.5C81.1167 108.85 75.7417 104.858 69.5333 103.817C64.1417 92.4917 49.3 89.25 39.1333 97.3417C32.4583 95.3417 25.0667 93.7 16.6667 92.5667V58.3333H26.4167C38.9 58.3333 47.8917 54.075 55.1083 50.65C64.1667 46.3583 68.5167 44.3667 76.6167 50.2667C71.2833 55.5667 65.8333 60.2333 60.225 63.5083C55.3167 66.3667 53.125 71.825 54.625 77.4083C56.5917 84.6917 65.1417 92.0583 77.6833 92.0583C94.1917 92.0583 102.142 82.0917 110.475 77.3417C122.917 89.3083 143.225 107.708 156.058 119.225C158.275 122.242 157.908 126.242 155.017 128.483V128.483ZM183.333 93.3417C175.733 95.1333 168.325 97.25 160.775 101.058C151.733 92.9 131.367 74.45 124.117 67.2C115.85 58.9417 107.5 58.15 98.3417 65.5583C91.7583 70.8583 81.525 77.6167 73.5833 74.7167C84.9583 66.7417 95.1833 55.1333 104.35 44.75C106.958 41.8 108.742 39.8167 116.867 44L122.517 46.9583C136.892 54.525 148.1 60.5167 165.283 59.75C170.45 59.5417 177.675 59.1583 183.333 58.8333V93.3417Z" fill="#F44336"/>
</svg>
