<svg width="200" height="200" viewBox="0 0 200 200" fill="none" xmlns="http://www.w3.org/2000/svg">
<path d="M135 79.8019V55.1981C122.917 50.8894 119.666 50.6869 117.973 46.5975C116.269 42.4969 118.44 40.0219 123.93 28.4681L106.532 11.07C95.1356 16.4869 92.5369 18.7425 88.3969 17.0269C84.3075 15.3281 84.0769 12.0263 79.8075 0H55.1981C50.9006 12.06 50.6981 15.3281 46.5975 17.0269C42.3675 18.7875 39.8306 16.4644 28.4681 11.07L11.07 28.4681C16.5656 40.0275 18.7312 42.4912 17.0269 46.6031C15.3281 50.6925 12.0712 50.9006 0 55.1981V79.8075C12.0319 84.0825 15.3281 84.3075 17.0269 88.4025C18.7369 92.5312 16.5713 94.9669 11.07 106.532L28.4681 123.93C39.7125 118.586 42.3619 116.207 46.5975 117.973C50.6925 119.672 50.895 122.923 55.1981 135H79.8019C84.0656 123.013 84.2963 119.683 88.4475 117.951C92.6381 116.218 95.1187 118.508 106.532 123.924L123.93 106.526C118.446 94.995 116.269 92.5088 117.973 88.3969C119.661 84.3131 122.923 84.105 135 79.8019V79.8019ZM107.578 84.0994C104.332 91.9406 107.196 97.9256 110.323 104.226L104.226 110.323C98.0775 107.269 92.07 104.271 84.1275 107.567C76.275 110.835 74.0587 117.09 71.82 123.75H63.1913C60.9525 117.084 58.7419 110.829 50.9119 107.578C42.93 104.271 36.81 107.325 30.78 110.323L24.6881 104.226C27.8212 97.9369 30.6844 91.9631 27.4275 84.0881C24.1706 76.2638 17.9156 74.0531 11.25 71.8144V63.1913C17.9156 60.9525 24.1706 58.7419 27.4219 50.9063C30.6731 43.065 27.8044 37.0744 24.6769 30.7744L30.7744 24.6769C36.8606 27.7031 42.9356 30.735 50.9119 27.4219C58.7419 24.1762 60.9525 17.9156 63.1913 11.25H71.82C74.0587 17.9156 76.275 24.1706 84.105 27.4219C92.0869 30.7294 98.2013 27.675 104.237 24.6769L110.334 30.7744C107.207 37.08 104.344 43.0762 107.589 50.9119C110.835 58.7362 117.09 60.9469 123.761 63.1913V71.82C117.079 74.0587 110.812 76.2694 107.578 84.0994V84.0994ZM67.5 50.625C76.8038 50.625 84.375 58.1962 84.375 67.5C84.375 76.8038 76.8038 84.375 67.5 84.375C58.1962 84.375 50.625 76.8038 50.625 67.5C50.625 58.1962 58.1962 50.625 67.5 50.625ZM67.5 39.375C51.9637 39.375 39.375 51.9637 39.375 67.5C39.375 83.0363 51.9637 95.625 67.5 95.625C83.0363 95.625 95.625 83.0363 95.625 67.5C95.625 51.9637 83.0363 39.375 67.5 39.375Z" fill="#F44336"/>
<path d="M200 104.333V93.6667C195.75 93.6667 192.372 94.3787 190.274 89.7307C188.445 85.296 191.86 82.808 194.485 80.1413L187.059 72.6C184.347 75.3547 182.05 78.752 177.436 76.8C173.041 74.9707 173.75 70.576 173.75 67H163.25C163.25 70.4987 163.98 74.96 159.564 76.8C154.942 78.7547 152.619 75.3253 149.939 72.6027L142.512 80.144C145.224 82.8987 148.571 85.2347 146.647 89.9227C145.733 92.1867 143.56 93.6667 141.15 93.6667H137V104.333C140.861 104.333 144.804 103.584 146.723 108.267C148.555 112.696 145.137 115.189 142.512 117.856L149.939 125.4C152.564 122.733 155.039 119.315 159.564 121.2C163.956 123.032 163.25 127.419 163.25 131H173.75C173.75 127.683 173.026 123.088 177.622 121.123C181.94 119.277 184.41 122.709 187.061 125.4L194.485 117.856C191.86 115.189 188.445 112.701 190.274 108.269L190.353 108.077C192.157 103.616 196.475 104.333 200 104.333V104.333ZM168.5 109.667C162.701 109.667 158 104.891 158 99C158 93.1093 162.701 88.3333 168.5 88.3333C174.299 88.3333 179 93.1093 179 99C179 104.891 174.299 109.667 168.5 109.667Z" fill="#F44336"/>
<path d="M163 166.667V153.333C157.603 153.333 153.313 154.223 150.65 148.413C148.327 142.87 152.663 139.76 155.997 136.427L146.567 127C143.123 130.443 140.207 134.69 134.347 132.25C128.767 129.963 129.667 124.47 129.667 120H116.333C116.333 124.373 117.26 129.95 111.653 132.25C105.783 134.693 102.833 130.407 99.43 127.003L90 136.43C93.4433 139.873 97.6933 142.793 95.25 148.653C94.09 151.483 91.33 153.333 88.27 153.333H83V166.667C87.9033 166.667 92.91 165.73 95.3467 171.583C97.6733 177.12 93.3333 180.237 90 183.57L99.43 193C102.763 189.667 105.907 185.393 111.653 187.75C117.23 190.04 116.333 195.523 116.333 200H129.667C129.667 195.853 128.747 190.11 134.583 187.653C140.067 185.347 143.203 189.637 146.57 193L155.997 183.57C152.663 180.237 148.327 177.127 150.65 171.587L150.75 171.347C153.04 165.77 158.523 166.667 163 166.667V166.667ZM123 173.333C115.637 173.333 109.667 167.363 109.667 160C109.667 152.637 115.637 146.667 123 146.667C130.363 146.667 136.333 152.637 136.333 160C136.333 167.363 130.363 173.333 123 173.333Z" fill="#F44336"/>
</svg>
