<svg width="200" height="200" viewBox="0 0 200 200" fill="none" xmlns="http://www.w3.org/2000/svg">
<g clip-path="url(#clip0)">
<path d="M116.667 158.333H83.3333C81.0333 158.333 79.1667 160.2 79.1667 162.5C79.1667 164.8 81.0333 166.667 83.3333 166.667H116.667C118.967 166.667 120.833 164.8 120.833 162.5C120.833 160.2 118.967 158.333 116.667 158.333ZM116.667 175H83.3333C81.0333 175 79.1667 176.867 79.1667 179.167C79.1667 181.467 81.0333 183.333 83.3333 183.333H116.667C118.967 183.333 120.833 181.467 120.833 179.167C120.833 176.867 118.967 175 116.667 175ZM118.75 191.667H81.25L91.15 198.183C92.4333 199.333 94.3167 200 96.275 200H103.733C105.683 200 107.575 199.333 108.858 198.183L118.75 191.667ZM150 76.675C150 106.417 123.217 126.533 123.217 150H106.642C106.617 134.517 113.892 121.758 120.983 109.442C127.325 98.4 133.333 87.9667 133.333 76.675C133.333 55.075 116.042 45.2417 99.975 45.2417C83.9333 45.2417 66.6667 55.075 66.6667 76.675C66.6667 87.9667 72.675 98.4 79.0167 109.442C86.1083 121.758 93.3917 134.517 93.35 150H76.7833C76.7833 126.533 50 106.417 50 76.675C50 45.65 74.9833 28.575 99.975 28.575C124.983 28.575 150 45.6667 150 76.675ZM183.333 70.9167V82.35H162.183C162.35 80.4917 162.5 78.6167 162.5 76.675C162.5 74.7 162.358 72.8083 162.208 70.925H183.333V70.9167ZM94.6 16.3083V0H106.025V16.3667C104.008 16.1833 101.992 16.075 99.975 16.075C98.1833 16.075 96.3917 16.1583 94.6 16.3083ZM63.4083 27.0917L54.7417 10.925L64.8083 5.525L73.45 21.6333C69.9667 23.1417 66.6 24.975 63.4083 27.0917V27.0917ZM151.625 41.55L167.808 29.9333L174.467 39.225L157.35 51.5C155.758 47.9167 153.825 44.6083 151.625 41.55ZM126.542 21.6417L135.192 5.525L145.258 10.925L136.583 27.1C133.4 24.9833 130.033 23.1583 126.542 21.6417V21.6417ZM42.6417 51.5L25.525 39.2333L32.1833 29.9417L48.3667 41.55C46.1667 44.6 44.2417 47.9083 42.6417 51.5ZM156.867 103.358L176.483 111.308L172.2 121.9L151.992 113.717C153.742 110.408 155.392 106.95 156.867 103.358V103.358ZM47.6333 112.983L28 121.817L23.3167 111.392L42.8167 102.625C44.2583 106.233 45.9083 109.667 47.6333 112.983V112.983ZM37.8167 82.35H16.6667V70.9167H37.7917C37.6417 72.8 37.5 74.7 37.5 76.675C37.5 78.6167 37.65 80.4917 37.8167 82.35V82.35Z" fill="#F44336"/>
</g>
<defs>
<clipPath id="clip0">
<rect width="200" height="200" fill="white"/>
</clipPath>
</defs>
</svg>
